<!DOCTYPE svg PUBLIC "-//W3C//DTD SVG 1.1//EN" "http://www.w3.org/Graphics/SVG/1.1/DTD/svg11.dtd">

<!-- Uploaded to: SVG Repo, www.svgrepo.com, Transformed by: SVG Repo Mixer Tools -->
<svg width="15px" height="15px" viewBox="-6 -6 36.00 36.00" fill="none" xmlns="http://www.w3.org/2000/svg" transform="rotate(0)matrix(1, 0, 0, 1, 0, 0)">

<g id="SVGRepo_bgCarrier" stroke-width="0" transform="translate(0,0), scale(1)">

<path transform="translate(-6, -6), scale(1.125)" d="M16,30.433379010430404C18.789818590666155,30.47031421591902,21.78203120839769,30.119243467381,23.927954429761204,28.336137888273633C26.00251885805574,26.612326258163574,26.426753174840016,23.700405916208474,27.209418843785173,21.119170058348452C27.894981951337247,18.858179003988866,28.632673995395194,16.568604357716204,28.20031777096453,14.245859124694165C27.777399858080617,11.973819286701087,26.135577555215853,10.255353377370376,24.832008658934335,8.347020932770358C23.347221535724888,6.173397851836556,22.344869629228096,3.53151693919975,20.027943835047644,2.2820830820156193C17.50560078706411,0.9218751670709837,14.312133799514474,0.14216446257841153,11.66855355137075,1.2484481039711834C9.054257912939836,2.342476742062049,8.392837613303227,5.662337850486926,6.636223117374023,7.886241143971883C4.982441971037465,9.979955699194033,2.377624800429518,11.370304506754998,1.6466823289181036,13.93630447208394C0.8781204805654038,16.634368619524,1.402060954678576,19.582589003783813,2.5790341243468973,22.129149746496555C3.753015133812389,24.669236494810107,5.826234075871071,26.655620888078456,8.205815382785314,28.127987996964023C10.557396965460057,29.58303026264784,13.234906186226667,30.396771143327964,16,30.433379010430404" fill="#a3f5fe" strokewidth="0"/>

</g>

<g id="SVGRepo_tracerCarrier" stroke-linecap="round" stroke-linejoin="round" stroke="#CCCCCC" stroke-width="0.192"/>

<g id="SVGRepo_iconCarrier"> <path d="M5 21C5 17.134 8.13401 14 12 14C15.866 14 19 17.134 19 21M16 7C16 9.20914 14.2091 11 12 11C9.79086 11 8 9.20914 8 7C8 4.79086 9.79086 3 12 3C14.2091 3 16 4.79086 16 7Z" stroke="#000000" stroke-width="2" stroke-linecap="round" stroke-linejoin="round"/> </g>

</svg>